<svg width="30" height="30" viewBox="0 0 30 30" fill="none" xmlns="http://www.w3.org/2000/svg">
<rect width="30" height="30" rx="15" fill="#2B2B2B"/>
<g clip-path="url(#clip0_82_8046)">
<path d="M15.0041 10.2158C12.3581 10.2158 10.2239 12.3501 10.2239 14.996C10.2239 17.642 12.3581 19.7762 15.0041 19.7762C17.6501 19.7762 19.7843 17.642 19.7843 14.996C19.7843 12.3501 17.6501 10.2158 15.0041 10.2158ZM15.0041 18.1038C13.2942 18.1038 11.8963 16.7101 11.8963 14.996C11.8963 13.282 13.2901 11.8883 15.0041 11.8883C16.7181 11.8883 18.1118 13.282 18.1118 14.996C18.1118 16.7101 16.714 18.1038 15.0041 18.1038V18.1038ZM21.0948 10.0203C21.0948 10.6402 20.5955 11.1353 19.9798 11.1353C19.3599 11.1353 18.8649 10.636 18.8649 10.0203C18.8649 9.40458 19.3641 8.90534 19.9798 8.90534C20.5955 8.90534 21.0948 9.40458 21.0948 10.0203ZM24.2608 11.1519C24.1901 9.65836 23.8489 8.33538 22.7547 7.24538C21.6647 6.15538 20.3418 5.81424 18.8482 5.73935C17.3089 5.65199 12.6951 5.65199 11.1558 5.73935C9.66643 5.81008 8.34345 6.15122 7.24929 7.24122C6.15513 8.33122 5.81814 9.6542 5.74326 11.1477C5.65589 12.6871 5.65589 17.3008 5.74326 18.8402C5.81398 20.3337 6.15513 21.6567 7.24929 22.7467C8.34345 23.8367 9.66227 24.1778 11.1558 24.2527C12.6951 24.3401 17.3089 24.3401 18.8482 24.2527C20.3418 24.182 21.6647 23.8408 22.7547 22.7467C23.8447 21.6567 24.1859 20.3337 24.2608 18.8402C24.3481 17.3008 24.3481 12.6912 24.2608 11.1519V11.1519ZM22.2721 20.4918C21.9476 21.3072 21.3194 21.9354 20.4999 22.2641C19.2726 22.7508 16.3604 22.6385 15.0041 22.6385C13.6478 22.6385 10.7315 22.7467 9.50833 22.2641C8.69292 21.9396 8.06471 21.3114 7.73605 20.4918C7.24929 19.2645 7.36162 16.3523 7.36162 14.996C7.36162 13.6398 7.25345 10.7234 7.73605 9.50027C8.06055 8.68485 8.68875 8.05664 9.50833 7.72798C10.7356 7.24122 13.6478 7.35355 15.0041 7.35355C16.3604 7.35355 19.2767 7.24538 20.4999 7.72798C21.3153 8.05248 21.9435 8.68069 22.2721 9.50027C22.7589 10.7276 22.6466 13.6398 22.6466 14.996C22.6466 16.3523 22.7589 19.2687 22.2721 20.4918Z" fill="#6B6B6B"/>
</g>
<defs>
<clipPath id="clip0_82_8046">
<rect width="18.6382" height="21.3008" fill="white" transform="translate(5.68091 4.34961)"/>
</clipPath>
</defs>
</svg>
