<svg width="65" height="20" viewBox="0 0 65 20" fill="none" xmlns="http://www.w3.org/2000/svg">
<g id="Device=Tablet, State=Mixed" clip-path="url(#clip0_82_5466)">
<g id="group">
<path id="&#237;&#140;&#168;&#236;&#138;&#164; 4847" fill-rule="evenodd" clip-rule="evenodd" d="M16.4038 5.81917C16.4038 3.23583 13.7059 2 10.4995 2C7.07259 2 3.93366 3.53083 2.78012 5.92167C2.45594 6.56021 2.2867 7.26782 2.28645 7.98583C2.27704 8.6018 2.4489 9.20665 2.78012 9.72333C3.0896 10.1376 3.49796 10.4655 3.96685 10.6761C4.43575 10.8868 4.9498 10.9733 5.46075 10.9275C7.03885 10.9275 8.31088 10.05 8.31088 8.5025C8.31198 8.44129 8.30003 8.38055 8.27585 8.32444C8.25168 8.26832 8.21583 8.21815 8.17077 8.17734C8.12572 8.13652 8.0725 8.10603 8.01475 8.08794C7.957 8.06985 7.89607 8.06458 7.83613 8.0725C7.42885 8.0725 7.32765 8.365 7.34246 8.5025C7.37895 8.77735 7.35646 9.05694 7.27651 9.32218C7.19656 9.58742 7.06105 9.83207 6.87921 10.0394C6.69738 10.2468 6.47351 10.4119 6.22289 10.5236C5.97227 10.6353 5.7008 10.6909 5.42702 10.6867C4.01923 10.6867 3.42518 9.465 3.42518 8.15833C3.42518 5.49167 5.41056 3.7375 7.46341 2.96333C8.42865 2.59768 9.45256 2.41683 10.483 2.43C12.8247 2.43 14.7245 3.34167 14.7245 5.76333C14.6947 6.76481 14.3 7.71966 13.6163 8.4438C12.9326 9.16794 12.0084 9.61009 11.022 9.685L11.1042 9.41C11.4507 7.87906 12.0409 6.41546 12.8518 5.07667C12.9147 4.96598 12.9886 4.8621 13.0723 4.76667L12.9539 4.62917C12.7736 4.73378 12.6031 4.85484 12.4445 4.99083C8.57746 8.03583 8.45733 16.6367 3.31658 16.6367C3.14064 16.643 2.96451 16.6316 2.79082 16.6025C2.32241 16.5627 1.88799 16.3388 1.58047 15.9787C1.27294 15.6187 1.11673 15.151 1.14525 14.6758C1.14525 14.4867 1.21354 14.2117 1.21354 14.0567C1.21697 13.9863 1.2064 13.916 1.18245 13.8499C1.15851 13.7838 1.12169 13.7233 1.07417 13.6719C1.02665 13.6205 0.969415 13.5793 0.905862 13.5508C0.84231 13.5223 0.77374 13.507 0.704233 13.5058H0.65898C0.200689 13.5058 0.0139169 13.8842 0.000752328 14.4C-0.0329819 15.9308 1.07037 16.8083 2.78341 16.9833C2.97018 16.9833 3.15695 17.0008 3.35936 17.0008C7.38031 17.0008 9.84044 13.9217 10.8928 10.1892C11.4222 10.1177 11.9451 10.0025 12.4561 9.845C14.3221 9.32917 16.4054 8.05583 16.4054 5.82" fill="#C4C4C4"/>
<path id="&#237;&#140;&#168;&#236;&#138;&#164; 4848" fill-rule="evenodd" clip-rule="evenodd" d="M39.7652 10.5659C39.5402 11.9187 39.0248 13.2051 38.2554 14.3342C37.9502 14.7984 37.6795 14.9175 37.4417 14.9175C37.1027 14.9175 37.0179 14.6425 37.0681 14.2509C37.3043 12.9986 37.7952 11.8097 38.5097 10.76C38.8832 10.2442 39.1202 10.0375 39.409 10.0375C39.6805 10.0375 39.7652 10.2784 39.7652 10.5709M24.1265 14.5259C23.9233 14.5259 23.7703 14.4567 23.7703 14.1817C23.9468 13.0984 24.3966 12.0797 25.076 11.2242C25.2773 10.894 25.5497 10.6143 25.8729 10.4059C26.1961 10.1975 26.5616 10.0659 26.9421 10.0209L26.0436 12.05C25.3648 13.615 24.6696 14.5259 24.1265 14.5259ZM15.3063 14.5259C15.1031 14.5259 14.9673 14.4567 14.9673 14.1817C15.1591 13.1031 15.6072 12.088 16.2731 11.2242C16.4743 10.894 16.7467 10.6143 17.0699 10.4059C17.3931 10.1975 17.7586 10.0659 18.1391 10.0209L17.2571 12.05C16.5783 13.58 15.8493 14.5259 15.3063 14.5259ZM55.4878 7.63086H54.0628L53.7575 8.38753L53.198 9.66003H52.5398L52.3366 10.09H53.0318L52.2008 11.93C51.6067 13.2367 50.691 14.5134 50.1652 14.5134C50.0467 14.5134 49.9784 14.4617 49.9784 14.3417C49.9977 14.1508 50.0495 13.9647 50.1315 13.7917C50.301 13.3959 50.5725 12.8284 50.7757 12.3992C51.1322 11.773 51.3898 11.0943 51.5393 10.3875C51.5453 10.2724 51.5268 10.1573 51.485 10.0501C51.4432 9.94282 51.3791 9.84595 51.2971 9.76602C51.2151 9.6861 51.117 9.62499 51.0096 9.58686C50.9022 9.54873 50.7879 9.53446 50.6745 9.54503C50.3269 9.57487 49.9891 9.67736 49.6825 9.84603C49.3759 10.0147 49.1072 10.2459 48.8932 10.525L49.2495 9.66502H47.9067L46.8214 12.1584C46.3969 13.0425 45.5148 14.5009 44.9553 14.5009C44.8369 14.5009 44.7859 14.4317 44.7859 14.3117C44.7974 14.205 44.8251 14.1007 44.8681 14.0025C44.9191 13.8992 45.5634 12.3517 45.5634 12.3517L46.7334 9.61753H45.3083L44.1564 12.2842C43.8174 13.1092 42.9222 14.5025 42.3414 14.5025C42.3166 14.5063 42.2914 14.5047 42.2673 14.4979C42.2432 14.4911 42.2208 14.4792 42.2016 14.463C42.1824 14.4467 42.1669 14.4266 42.1559 14.4038C42.145 14.381 42.1389 14.3562 42.1381 14.3309V14.2967C42.166 14.0868 42.2292 13.8833 42.3249 13.695L42.919 12.3542L44.1531 9.62003H42.7281L42.4565 10.2392C42.3682 10.4822 42.2154 10.6959 42.0149 10.8567C41.8145 11.0176 41.5741 11.1193 41.3203 11.1509C41.0488 11.1509 40.913 11.0475 40.8628 10.9442C40.8619 10.749 40.8213 10.5562 40.7436 10.3776C40.6658 10.199 40.5526 10.0386 40.4109 9.90633C40.2693 9.77404 40.1023 9.67273 39.9202 9.6087C39.7382 9.54467 39.5451 9.51931 39.353 9.53419C38.8289 9.54866 38.3175 9.70044 37.8686 9.97471C37.4198 10.249 37.0487 10.6364 36.7917 11.0992C36.4172 11.6833 36.1312 12.3209 35.9434 12.9909C35.4349 13.8334 34.9083 14.4909 34.4846 14.4909C34.4592 14.4946 34.4333 14.4924 34.4089 14.4842C34.3846 14.476 34.3624 14.4622 34.3443 14.4438C34.3261 14.4254 34.3125 14.403 34.3044 14.3783C34.2963 14.3537 34.2941 14.3274 34.2978 14.3017C34.3319 14.0991 34.3948 13.9026 34.4846 13.7184L35.4176 11.7067C35.6497 11.2622 35.7992 10.7784 35.8586 10.2792C35.8606 10.1772 35.8414 10.0759 35.8022 9.9819C35.7631 9.8879 35.7048 9.8033 35.6312 9.7336C35.5577 9.66389 35.4705 9.61063 35.3753 9.57728C35.2801 9.54393 35.179 9.53124 35.0786 9.54003C34.6963 9.56758 34.3233 9.67317 33.9823 9.85047C33.6412 10.0278 33.3391 10.2731 33.0941 10.5717C33.122 10.4712 33.1334 10.3668 33.1278 10.2625C33.1412 10.1631 33.1315 10.0618 33.0994 9.96681C33.0672 9.87184 33.0136 9.7858 32.9427 9.71558C32.8719 9.64537 32.7858 9.59292 32.6914 9.56243C32.5969 9.53195 32.4967 9.52428 32.3988 9.54003C32.0411 9.57094 31.6941 9.67899 31.3811 9.85693C31.068 10.0349 30.7962 10.2786 30.5838 10.5717L30.9565 9.64336H29.6672L28.5647 12.1534C28.0389 13.32 27.2079 14.4917 26.7331 14.4917C26.6311 14.4917 26.5636 14.44 26.5636 14.3025C26.6356 13.9518 26.7494 13.6112 26.9026 13.2884L28.3614 9.95502C28.4634 9.69669 27.7674 9.53836 26.8853 9.53836C25.9492 9.5853 25.0572 9.95557 24.3578 10.5875C24.077 10.8757 23.7258 11.0833 23.34 11.1892C23.2577 11.1892 23.2215 11.1375 23.2215 11.0859C23.2215 10.8792 23.6962 10.3125 23.6962 9.86503C23.6962 9.65836 23.5942 9.53836 23.3227 9.53836C22.6882 9.6595 22.1236 10.0225 21.7454 10.5525L22.119 9.64086H20.8469L19.7674 12.1484C19.2417 13.315 18.3769 14.5559 17.9186 14.5559C17.8002 14.5559 17.7319 14.4867 17.7319 14.3492C17.806 13.9778 17.9317 13.6189 18.1054 13.2834L19.5469 9.95003C19.649 9.69169 18.9529 9.53336 18.0717 9.53336C17.432 9.57437 16.8093 9.75922 16.249 10.0745C15.6887 10.3897 15.2048 10.8275 14.8324 11.3559C14.1325 12.1748 13.6896 13.1865 13.5603 14.2617C13.5413 14.4085 13.5549 14.5577 13.6003 14.6985C13.6456 14.8392 13.7215 14.9679 13.8223 15.0751C13.9232 15.1822 14.0464 15.2652 14.183 15.3178C14.3197 15.3704 14.4662 15.3914 14.6119 15.3792C14.9742 15.3382 15.3232 15.2168 15.6339 15.0237C15.9447 14.8305 16.2095 14.5704 16.4097 14.2617C16.3845 14.3575 16.3674 14.4554 16.3586 14.5542C16.3586 15.0359 16.5454 15.3792 17.1222 15.3792C17.469 15.3242 17.8007 15.1966 18.0961 15.0044C18.3914 14.8123 18.644 14.5599 18.8377 14.2634L18.414 15.2775H19.788L21.1415 12.1675C21.5825 11.1534 22.091 10.6375 22.2267 10.6375C22.2778 10.6375 22.309 10.655 22.309 10.6892C22.309 10.7925 22.0885 11.085 22.0885 11.3425C22.0885 11.6 22.2243 11.8067 22.6143 11.8067C22.9426 11.7815 23.2585 11.6688 23.53 11.48C22.8734 12.269 22.4658 13.2395 22.36 14.2659C22.3381 14.4132 22.3497 14.5636 22.3939 14.7057C22.4382 14.8478 22.514 14.9777 22.6155 15.0856C22.7169 15.1934 22.8414 15.2763 22.9794 15.3279C23.1174 15.3795 23.2652 15.3985 23.4116 15.3834C23.7795 15.3199 24.1306 15.1803 24.4429 14.9733C24.7552 14.7662 25.022 14.4962 25.2266 14.18C25.207 14.2937 25.1957 14.4088 25.1929 14.5242C25.183 14.6352 25.1964 14.747 25.2322 14.8524C25.2681 14.9578 25.3255 15.0543 25.4009 15.1355C25.4762 15.2168 25.5676 15.2809 25.6692 15.3238C25.7708 15.3666 25.8802 15.3872 25.9902 15.3842C26.5842 15.3842 27.0417 15.0059 27.6357 14.2842L27.1947 15.2842H28.6198L29.9091 12.3092C30.4686 11.02 31.2494 10.3317 31.6221 10.3317C31.7044 10.3142 31.7916 10.4009 31.8089 10.4867V10.5209C31.7875 10.6687 31.7477 10.8132 31.6904 10.9509L29.8243 15.3009H31.2831L32.5889 12.275C33.1648 10.9684 33.7934 10.3317 34.2509 10.3317C34.4031 10.3317 34.4541 10.4009 34.4541 10.555C34.4429 10.7214 34.4028 10.8844 34.3357 11.0367L33.0636 13.7867C32.9412 14.0458 32.8665 14.3254 32.8431 14.6117C32.8431 15.0417 33.0636 15.4025 33.7079 15.4025C34.5216 15.4025 35.1494 14.7667 35.8619 13.8375V14.0267C35.8615 14.2271 35.903 14.4253 35.9838 14.6082C36.0645 14.7911 36.1827 14.9546 36.3304 15.0878C36.4782 15.2211 36.6522 15.3211 36.8409 15.3812C37.0296 15.4414 37.2288 15.4603 37.4252 15.4367C38.731 15.4367 39.766 14.5425 40.4103 13.0984C40.6449 12.5868 40.7996 12.0414 40.8686 11.4817C41.0105 11.552 41.1689 11.5808 41.326 11.565C41.5402 11.5752 41.7525 11.5213 41.9366 11.41L41.716 11.91C41.4618 12.46 41.173 13.0617 40.9525 13.5767C40.8087 13.8788 40.7225 14.2056 40.6983 14.54C40.6867 14.6588 40.701 14.7786 40.7401 14.8912C40.7793 15.0037 40.8423 15.1062 40.9247 15.1914C41.0071 15.2767 41.107 15.3426 41.2173 15.3845C41.3275 15.4265 41.4456 15.4434 41.563 15.4342C41.9575 15.359 42.3327 15.2027 42.6652 14.975C42.9978 14.7472 43.2807 14.4528 43.4966 14.11C43.4619 14.2682 43.4448 14.4297 43.4455 14.5917C43.4455 15.0217 43.5813 15.4342 44.1581 15.4342C44.5109 15.3859 44.8489 15.2591 45.1476 15.0629C45.4464 14.8666 45.6985 14.6058 45.8859 14.2992L45.4622 15.2992H46.8873L48.0235 12.6684C48.6678 11.1892 49.3128 10.295 49.9233 10.295C49.9719 10.294 50.0193 10.3108 50.0566 10.3424C50.094 10.3739 50.1188 10.4181 50.1266 10.4667V10.5184C49.9633 11.0766 49.7355 11.6134 49.4478 12.1175C49.2153 12.6042 48.9958 13.0972 48.7895 13.5959C48.6381 13.901 48.5515 14.2348 48.5353 14.5759C48.525 14.6845 48.5385 14.7942 48.5749 14.8969C48.6113 14.9997 48.6697 15.093 48.7459 15.1703C48.8221 15.2475 48.9142 15.3067 49.0156 15.3437C49.117 15.3807 49.2253 15.3945 49.3326 15.3842C49.7629 15.3106 50.1729 15.1452 50.5354 14.8992C50.898 14.6531 51.2048 14.3318 51.4356 13.9567C51.3357 14.25 51.2843 14.5581 51.2834 14.8684C51.2641 15.0334 51.2811 15.2006 51.3332 15.3582C51.3853 15.5157 51.4712 15.6596 51.5846 15.7796C51.6981 15.8996 51.8364 15.9926 51.9896 16.052C52.1428 16.1115 52.3071 16.1358 52.4707 16.1234C52.9339 16.1179 53.3841 15.9677 53.76 15.6934C54.2836 15.2782 54.7364 14.7788 55.1003 14.215L54.846 13.9742C54.5412 14.4401 54.1696 14.8574 53.7435 15.2125C53.5399 15.3903 53.2831 15.4934 53.0145 15.505C52.7093 15.505 52.5209 15.35 52.5209 14.9717C52.5837 14.4163 52.7386 13.8757 52.9791 13.3725C52.9791 13.3725 53.3692 12.4784 53.7427 11.6359C54.048 10.9134 54.3532 10.2259 54.4009 10.0884H55.334L55.5207 9.65836H54.605L55.4878 7.63086Z" fill="#C4C4C4"/>
<path id="&#237;&#140;&#168;&#236;&#138;&#164; 4849" fill-rule="evenodd" clip-rule="evenodd" d="M61.7426 9.66578L63.0369 6.61328H61.5032L60.1933 9.66578H56.9482L56.397 10.9391H59.6544L58.3618 13.9566H59.8954L61.2053 10.9391H64.4627L64.9967 9.66578H61.7426Z" fill="#C4C4C4"/>
</g>
</g>
<defs>
<clipPath id="clip0_82_5466">
<rect width="65" height="20" fill="white"/>
</clipPath>
</defs>
</svg>
