<svg width="24" height="24" viewBox="0 0 24 24" fill="none" xmlns="http://www.w3.org/2000/svg">
<g id="Device=Tablet" clip-path="url(#clip0_80_5335)">
<path id="Vector" d="M22.4516 0H1.54839C0.693236 0 0 0.693236 0 1.54839V22.4516C0 23.3068 0.693236 24 1.54839 24H22.4516C23.3068 24 24 23.3068 24 22.4516V1.54839C24 0.693236 23.3068 0 22.4516 0Z" fill="black"/>
<path id="Vector_2" d="M1.93549 8.51663V3.87147C1.93549 3.65769 2.10879 3.48438 2.32258 3.48438H12.3871C12.6009 3.48438 12.7742 3.65769 12.7742 3.87147V6.7747L14.4071 3.69035C14.4742 3.56363 14.6058 3.48438 14.7492 3.48438H22.2926C22.5594 3.48438 22.7462 3.74795 22.6578 3.99968L16.5425 21.419C16.488 21.5741 16.3416 21.6779 16.1772 21.6779H5.80645C5.59266 21.6779 5.41936 21.5046 5.41936 21.2908V9.29083C5.41936 9.07703 5.24605 8.90373 5.03226 8.90373H2.32258C2.1088 8.90373 1.93549 8.73043 1.93549 8.51663Z" fill="#FF002F"/>
<path id="Vector_3" fill-rule="evenodd" clip-rule="evenodd" d="M12.5807 13.1365C12.3165 13.6125 11.8088 13.9347 11.2258 13.9347C10.3707 13.9347 9.67743 13.2414 9.67743 12.3863C9.67743 11.5311 10.3707 10.8379 11.2258 10.8379C11.8088 10.8379 12.3165 11.1601 12.5807 11.6361C12.8448 11.1601 13.3525 10.8379 13.9355 10.8379C14.7906 10.8379 15.4839 11.5311 15.4839 12.3863C15.4839 13.2414 14.7906 13.9347 13.9355 13.9347C13.3525 13.9347 12.8448 13.6125 12.5807 13.1365Z" fill="white"/>
<path id="Vector_4" fill-rule="evenodd" clip-rule="evenodd" d="M11.2258 13.1617C11.6534 13.1617 12 12.8151 12 12.3875C12 11.9599 11.6534 11.6133 11.2258 11.6133C10.7982 11.6133 10.4516 11.9599 10.4516 12.3875C10.4516 12.8151 10.7982 13.1617 11.2258 13.1617ZM13.9355 13.1617C14.3631 13.1617 14.7097 12.8151 14.7097 12.3875C14.7097 11.9599 14.3631 11.6133 13.9355 11.6133C13.5079 11.6133 13.1613 11.9599 13.1613 12.3875C13.1613 12.8151 13.5079 13.1617 13.9355 13.1617Z" fill="#030303"/>
<path id="Vector_5" fill-rule="evenodd" clip-rule="evenodd" d="M11.6129 16.0042C12.0405 16.0042 12.3871 15.6576 12.3871 15.23C12.3871 15.1849 12.3832 15.1407 12.3758 15.0977L10.9892 15.1843C10.9339 15.1878 10.8834 15.202 10.8387 15.2244C10.8387 15.2263 10.8387 15.2281 10.8387 15.23C10.8387 15.6576 11.1853 16.0042 11.6129 16.0042Z" fill="white"/>
<path id="Vector_6" d="M10.2427 15.2754L14.889 14.918" stroke="black" stroke-linecap="round"/>
<path id="Vector_7" fill-rule="evenodd" clip-rule="evenodd" d="M16.6452 14.1291C16.6452 14.236 16.5585 14.3226 16.4516 14.3226C16.3447 14.3226 16.2581 14.236 16.2581 14.1291C16.2581 14.0222 16.3447 13.9355 16.4516 13.9355C16.5585 13.9355 16.6452 14.0222 16.6452 14.1291ZM17.8064 14.1291C17.8064 14.236 17.7198 14.3226 17.6129 14.3226C17.506 14.3226 17.4193 14.236 17.4193 14.1291C17.4193 14.0222 17.506 13.9355 17.6129 13.9355C17.7198 13.9355 17.8064 14.0222 17.8064 14.1291ZM16.8387 15.0968C16.9456 15.0968 17.0323 15.0102 17.0323 14.9033C17.0323 14.7964 16.9456 14.7097 16.8387 14.7097C16.7318 14.7097 16.6452 14.7964 16.6452 14.9033C16.6452 15.0102 16.7318 15.0968 16.8387 15.0968Z" fill="#FF305B"/>
<path id="Vector_8" fill-rule="evenodd" clip-rule="evenodd" d="M6.96771 14.1291C6.96771 14.236 7.05438 14.3226 7.16126 14.3226C7.26814 14.3226 7.35481 14.236 7.35481 14.1291C7.35481 14.0222 7.26814 13.9355 7.16126 13.9355C7.05438 13.9355 6.96771 14.0222 6.96771 14.1291ZM8.129 14.1291C8.129 14.236 8.21567 14.3226 8.32255 14.3226C8.42943 14.3226 8.5161 14.236 8.5161 14.1291C8.5161 14.0222 8.42943 13.9355 8.32255 13.9355C8.21567 13.9355 8.129 14.0222 8.129 14.1291ZM7.93545 15.0968C7.82858 15.0968 7.74191 15.0102 7.74191 14.9033C7.74191 14.7964 7.82858 14.7097 7.93545 14.7097C8.04233 14.7097 8.129 14.7964 8.129 14.9033C8.129 15.0102 8.04233 15.0968 7.93545 15.0968Z" fill="#FF305B"/>
</g>
<defs>
<clipPath id="clip0_80_5335">
<rect width="24" height="24" fill="white"/>
</clipPath>
</defs>
</svg>
