<svg width="75" height="24" viewBox="0 0 75 24" fill="none" xmlns="http://www.w3.org/2000/svg">
<g id="Logo_1" clip-path="url(#clip0_80_4008)">
<g id="img_logo">
<g id="logo">
<g id="&#234;&#183;&#184;&#235;&#163;&#185; 5598">
<mask id="mask0_80_4008" style="mask-type:luminance" maskUnits="userSpaceOnUse" x="0" y="2" width="75" height="20">
<path id="clip-path" d="M0 2.78711H74.7222V21.214H0V2.78711Z" fill="white"/>
</mask>
<g mask="url(#mask0_80_4008)">
<g id="Group">
<path id="&#237;&#140;&#168;&#236;&#138;&#164; 4595" d="M48.9571 13.1716L52.5963 20.5576H58.2511V3.23047H52.8375V10.4433C52.8377 10.5524 52.8012 10.6582 52.7339 10.7437C52.6667 10.8292 52.5726 10.8893 52.467 10.9142C52.3615 10.939 52.2507 10.9272 52.1526 10.8806C52.0546 10.834 51.9752 10.7554 51.9273 10.6576L48.2693 3.23047H42.6145V20.5568H48.0443V13.385C48.0443 13.2761 48.0809 13.1703 48.1483 13.085C48.2156 12.9996 48.3097 12.9397 48.4152 12.915C48.5207 12.8902 48.6314 12.9021 48.7294 12.9487C48.8273 12.9953 48.9067 13.0739 48.9545 13.1716" fill="white"/>
<path id="&#236;&#130;&#172;&#234;&#176;&#129;&#237;&#152;&#149; 4338" d="M34.2401 3.23047H40.1778V20.5568H34.2401V3.23047Z" fill="white"/>
<path id="&#237;&#140;&#168;&#236;&#138;&#164; 4596" d="M60.006 10.2537V13.4475C60.006 16.5537 61.171 18.7995 63.4679 20.1212C67.1327 22.2306 72.4099 20.9286 74.723 19.2083V11.1452H69.3605V16.216L69.2582 16.2563C68.8323 16.4225 68.3748 16.4907 67.9192 16.4558C67.4636 16.4209 67.0216 16.284 66.6256 16.0549C66.2528 15.7524 65.9615 15.3607 65.7783 14.9157C65.5952 14.4706 65.526 13.9864 65.5773 13.5075V9.93402C65.5239 9.46992 65.6399 9.0021 65.9037 8.61756C66.1675 8.23302 66.5613 7.95793 67.0116 7.84345C67.5016 7.72479 68.0181 7.79765 68.4566 8.04731C68.8952 8.29696 69.2231 8.70478 69.3742 9.18831L74.5687 6.38631C73.9072 5.23038 72.9396 4.2818 71.7738 3.6462C70.6079 3.01059 69.2895 2.71292 67.9653 2.78631C67.6151 2.78631 67.2741 2.80345 66.9494 2.8326C65.1936 2.93812 63.518 3.60853 62.1699 4.74488C61.4398 5.45487 60.8693 6.31385 60.4968 7.26405C60.1243 8.21426 59.9584 9.23367 60.0102 10.2537" fill="white"/>
<path id="&#237;&#140;&#168;&#236;&#138;&#164; 4597" d="M14.7332 3.23047H0V8.30304H4.43182V20.5602H10.2929V8.30304H14.729L14.7332 3.23047Z" fill="white"/>
<path id="&#237;&#140;&#168;&#236;&#138;&#164; 4598" d="M21.5335 20.753L25.246 9.15162C25.2805 9.04146 25.3531 8.94739 25.4507 8.8865C25.5483 8.82561 25.6644 8.80193 25.7778 8.81978C25.8913 8.83762 25.9946 8.89579 26.0691 8.98374C26.1435 9.07168 26.1841 9.18356 26.1835 9.29905L26.1835 20.7539L31.8136 20.7539L31.8136 3.42676L21.1679 3.42676L15.3409 20.753L21.5335 20.753Z" fill="white"/>
</g>
</g>
</g>
</g>
</g>
</g>
<defs>
<clipPath id="clip0_80_4008">
<rect width="75" height="24" fill="white"/>
</clipPath>
</defs>
</svg>
