<svg width="30" height="30" viewBox="0 0 30 30" fill="none" xmlns="http://www.w3.org/2000/svg">
<rect width="30" height="30" rx="15" fill="#2B2B2B"/>
<g clip-path="url(#clip0_82_8045)">
<path d="M22.3331 11.2407C22.3448 11.4047 22.3448 11.5687 22.3448 11.7327C22.3448 16.7346 18.5377 22.498 11.5795 22.498C9.43581 22.498 7.44442 21.8772 5.76929 20.7995C6.07387 20.8346 6.36669 20.8463 6.68299 20.8463C8.4518 20.8463 10.0801 20.2489 11.3804 19.2298C9.71696 19.1946 8.32297 18.1052 7.84268 16.6058C8.07698 16.6409 8.31125 16.6644 8.55727 16.6644C8.89697 16.6644 9.2367 16.6175 9.55297 16.5355C7.81928 16.1841 6.51896 14.6613 6.51896 12.8221V12.7753C7.02265 13.0564 7.60841 13.2321 8.22922 13.2555C7.21008 12.5761 6.5424 11.4164 6.5424 10.1044C6.5424 9.40159 6.72979 8.75731 7.05781 8.19502C8.92037 10.491 11.7201 11.9904 14.8594 12.1544C14.8009 11.8733 14.7657 11.5804 14.7657 11.2876C14.7657 9.20244 16.4526 7.50391 18.5494 7.50391C19.6388 7.50391 20.6228 7.96076 21.3139 8.69875C22.169 8.53476 22.989 8.21846 23.7153 7.78505C23.4342 8.66363 22.8368 9.40162 22.0519 9.87016C22.8134 9.7882 23.5514 9.5773 24.2308 9.28447C23.7154 10.0341 23.0711 10.7018 22.3331 11.2407V11.2407Z" fill="#6B6B6B"/>
</g>
<defs>
<clipPath id="clip0_82_8045">
<rect width="18.4615" height="18.4615" fill="white" transform="translate(5.76929 5.76953)"/>
</clipPath>
</defs>
</svg>
