<svg width="20" height="18" viewBox="0 0 20 18" fill="none" xmlns="http://www.w3.org/2000/svg">
<g id="youtube" clip-path="url(#clip0_82_8024)">
<path id="Vector" d="M18.6485 4.54082C18.4409 3.74135 17.8292 3.11171 17.0525 2.89804C15.6448 2.50977 10 2.50977 10 2.50977C10 2.50977 4.35525 2.50977 2.94749 2.89804C2.17085 3.11175 1.55917 3.74135 1.35156 4.54082C0.974365 5.9899 0.974365 9.01327 0.974365 9.01327C0.974365 9.01327 0.974365 12.0366 1.35156 13.4857C1.55917 14.2852 2.17085 14.8886 2.94749 15.1023C4.35525 15.4905 10 15.4905 10 15.4905C10 15.4905 15.6448 15.4905 17.0525 15.1023C17.8292 14.8886 18.4409 14.2852 18.6485 13.4857C19.0257 12.0366 19.0257 9.01327 19.0257 9.01327C19.0257 9.01327 19.0257 5.9899 18.6485 4.54082V4.54082ZM8.15385 11.7583V6.26827L12.8718 9.01333L8.15385 11.7583V11.7583Z" fill="#6B6B6B"/>
</g>
<defs>
<clipPath id="clip0_82_8024">
<rect width="19.0385" height="17.3077" fill="white" transform="translate(0.480713 0.345703)"/>
</clipPath>
</defs>
</svg>
