<svg width="16" height="18" viewBox="0 0 16 18" fill="none" xmlns="http://www.w3.org/2000/svg">
<g id="instagram" clip-path="url(#clip0_82_8013)">
<path id="Vector" d="M8.00308 5.17267C5.88632 5.17267 4.17893 6.88006 4.17893 8.99683C4.17893 11.1136 5.88632 12.821 8.00308 12.821C10.1198 12.821 11.8272 11.1136 11.8272 8.99683C11.8272 6.88006 10.1198 5.17267 8.00308 5.17267ZM8.00308 11.483C6.63517 11.483 5.51688 10.3681 5.51688 8.99683C5.51688 7.62559 6.63185 6.51063 8.00308 6.51063C9.37432 6.51063 10.4893 7.62559 10.4893 8.99683C10.4893 10.3681 9.37099 11.483 8.00308 11.483V11.483ZM12.8756 5.01625C12.8756 5.51215 12.4762 5.90822 11.9837 5.90822C11.4878 5.90822 11.0917 5.50883 11.0917 5.01625C11.0917 4.52367 11.4911 4.12428 11.9837 4.12428C12.4762 4.12428 12.8756 4.52367 12.8756 5.01625ZM15.4084 5.92153C15.3518 4.72669 15.0789 3.66831 14.2036 2.79631C13.3316 1.92431 12.2732 1.65139 11.0784 1.59148C9.84693 1.52159 6.15591 1.52159 4.92446 1.59148C3.73295 1.64806 2.67456 1.92098 1.79924 2.79298C0.923908 3.66498 0.65432 4.72336 0.594412 5.9182C0.524519 7.14965 0.524519 10.8407 0.594412 12.0721C0.650992 13.267 0.923908 14.3253 1.79924 15.1973C2.67456 16.0693 3.72962 16.3423 4.92446 16.4022C6.15591 16.4721 9.84693 16.4721 11.0784 16.4022C12.2732 16.3456 13.3316 16.0727 14.2036 15.1973C15.0756 14.3253 15.3485 13.267 15.4084 12.0721C15.4783 10.8407 15.4783 7.15298 15.4084 5.92153V5.92153ZM13.8175 13.3934C13.5579 14.0458 13.0554 14.5483 12.3997 14.8113C11.4179 15.2007 9.08809 15.1108 8.00308 15.1108C6.91808 15.1108 4.58498 15.1973 3.60647 14.8113C2.95414 14.5517 2.45157 14.0491 2.18864 13.3934C1.79924 12.4116 1.8891 10.0818 1.8891 8.99683C1.8891 7.91182 1.80256 5.57872 2.18864 4.60021C2.44824 3.94788 2.95081 3.44531 3.60647 3.18238C4.5883 2.79298 6.91808 2.88284 8.00308 2.88284C9.08809 2.88284 11.4212 2.79631 12.3997 3.18238C13.052 3.44199 13.5546 3.94455 13.8175 4.60021C14.2069 5.58205 14.1171 7.91182 14.1171 8.99683C14.1171 10.0818 14.2069 12.4149 13.8175 13.3934Z" fill="#6B6B6B"/>
</g>
<defs>
<clipPath id="clip0_82_8013">
<rect width="14.9105" height="17.0406" fill="white" transform="translate(0.544678 0.480469)"/>
</clipPath>
</defs>
</svg>
