<svg width="18" height="18" viewBox="0 0 18 18" fill="none" xmlns="http://www.w3.org/2000/svg">
<g id="Device=Mobile" clip-path="url(#clip0_80_5336)">
<path id="Vector" d="M16.8387 0H1.16129C0.519927 0 0 0.519927 0 1.16129V16.8387C0 17.4801 0.519927 18 1.16129 18H16.8387C17.4801 18 18 17.4801 18 16.8387V1.16129C18 0.519927 17.4801 0 16.8387 0Z" fill="black"/>
<path id="Vector_2" d="M1.4516 6.38747V2.9036C1.4516 2.74326 1.58158 2.61328 1.74192 2.61328H9.29031C9.45065 2.61328 9.58063 2.74326 9.58063 2.9036V5.08102L10.8053 2.76776C10.8556 2.67272 10.9544 2.61328 11.0619 2.61328H16.7194C16.9195 2.61328 17.0596 2.81096 16.9933 2.99976L12.4069 16.0643C12.366 16.1806 12.2562 16.2584 12.1329 16.2584H4.35483C4.19448 16.2584 4.0645 16.1285 4.0645 15.9681V6.96812C4.0645 6.80777 3.93453 6.6778 3.77418 6.6778H1.74192C1.58158 6.6778 1.4516 6.54782 1.4516 6.38747Z" fill="#FF002F"/>
<path id="Vector_3" fill-rule="evenodd" clip-rule="evenodd" d="M9.43548 9.85284C9.23736 10.2099 8.85657 10.4515 8.41935 10.4515C7.778 10.4515 7.25806 9.93155 7.25806 9.2902C7.25806 8.64884 7.778 8.12891 8.41935 8.12891C8.85657 8.12891 9.23736 8.37054 9.43548 8.72755C9.63359 8.37054 10.0144 8.12891 10.4516 8.12891C11.093 8.12891 11.6129 8.64884 11.6129 9.2902C11.6129 9.93155 11.093 10.4515 10.4516 10.4515C10.0144 10.4515 9.63359 10.2099 9.43548 9.85284Z" fill="white"/>
<path id="Vector_4" fill-rule="evenodd" clip-rule="evenodd" d="M8.41933 9.87027C8.74002 9.87027 8.99997 9.61032 8.99997 9.28963C8.99997 8.96894 8.74002 8.70898 8.41933 8.70898C8.09864 8.70898 7.83868 8.96894 7.83868 9.28963C7.83868 9.61032 8.09864 9.87027 8.41933 9.87027ZM10.4516 9.87027C10.7723 9.87027 11.0322 9.61032 11.0322 9.28963C11.0322 8.96894 10.7723 8.70898 10.4516 8.70898C10.1309 8.70898 9.87094 8.96894 9.87094 9.28963C9.87094 9.61032 10.1309 9.87027 10.4516 9.87027Z" fill="#030303"/>
<path id="Vector_5" fill-rule="evenodd" clip-rule="evenodd" d="M8.70967 12.0022C9.03036 12.0022 9.29032 11.7422 9.29032 11.4215C9.29032 11.3877 9.28742 11.3545 9.28187 11.3223L8.24193 11.3872C8.20048 11.3899 8.16256 11.4005 8.12906 11.4173C8.12903 11.4187 8.12903 11.4201 8.12903 11.4215C8.12903 11.7422 8.38898 12.0022 8.70967 12.0022Z" fill="white"/>
<path id="Vector_6" d="M7.68201 11.4575L11.1667 11.1895" stroke="black" stroke-linecap="round"/>
<path id="Vector_7" fill-rule="evenodd" clip-rule="evenodd" d="M12.4839 10.5963C12.4839 10.6765 12.4189 10.7415 12.3387 10.7415C12.2585 10.7415 12.1935 10.6765 12.1935 10.5963C12.1935 10.5162 12.2585 10.4512 12.3387 10.4512C12.4189 10.4512 12.4839 10.5162 12.4839 10.5963ZM13.3548 10.5963C13.3548 10.6765 13.2898 10.7415 13.2097 10.7415C13.1295 10.7415 13.0645 10.6765 13.0645 10.5963C13.0645 10.5162 13.1295 10.4512 13.2097 10.4512C13.2898 10.4512 13.3548 10.5162 13.3548 10.5963ZM12.629 11.3221C12.7092 11.3221 12.7742 11.2571 12.7742 11.177C12.7742 11.0968 12.7092 11.0318 12.629 11.0318C12.5489 11.0318 12.4839 11.0968 12.4839 11.177C12.4839 11.2571 12.5489 11.3221 12.629 11.3221Z" fill="#FF305B"/>
<path id="Vector_8" fill-rule="evenodd" clip-rule="evenodd" d="M5.22583 10.5963C5.22583 10.6765 5.29083 10.7415 5.37099 10.7415C5.45115 10.7415 5.51615 10.6765 5.51615 10.5963C5.51615 10.5162 5.45115 10.4512 5.37099 10.4512C5.29083 10.4512 5.22583 10.5162 5.22583 10.5963ZM6.0968 10.5963C6.0968 10.6765 6.1618 10.7415 6.24196 10.7415C6.32212 10.7415 6.38712 10.6765 6.38712 10.5963C6.38712 10.5162 6.32212 10.4512 6.24196 10.4512C6.1618 10.4512 6.0968 10.5162 6.0968 10.5963ZM5.95164 11.3221C5.87148 11.3221 5.80648 11.2571 5.80648 11.177C5.80648 11.0968 5.87148 11.0318 5.95164 11.0318C6.03179 11.0318 6.0968 11.0968 6.0968 11.177C6.0968 11.2571 6.03179 11.3221 5.95164 11.3221Z" fill="#FF305B"/>
</g>
<defs>
<clipPath id="clip0_80_5336">
<rect width="18" height="18" fill="white"/>
</clipPath>
</defs>
</svg>
