<svg width="46" height="15" viewBox="0 0 46 15" fill="none" xmlns="http://www.w3.org/2000/svg">
<g id="Logo / Default" clip-path="url(#clip0_80_3980)">
<g id="img_logo">
<g id="logo">
<g id="&#234;&#183;&#184;&#235;&#163;&#185; 5598">
<mask id="mask0_80_3980" style="mask-type:luminance" maskUnits="userSpaceOnUse" x="0" y="1" width="46" height="13">
<path id="clip-path" d="M0 1.74219H45.8296V13.259H0V1.74219Z" fill="white"/>
</mask>
<g mask="url(#mask0_80_3980)">
<g id="Group">
<path id="&#237;&#140;&#168;&#236;&#138;&#164; 4595" d="M30.027 8.2347L32.2591 12.8509H35.7274V2.02148H32.407V6.52952C32.4071 6.59766 32.3847 6.66384 32.3435 6.71728C32.3022 6.77071 32.2445 6.80826 32.1798 6.82379C32.115 6.83932 32.0471 6.83192 31.987 6.80281C31.9268 6.77369 31.8781 6.72457 31.8487 6.66345L29.6052 2.02148H26.1369V12.8504H29.4672V8.36809C29.4672 8.29999 29.4896 8.2339 29.5309 8.18055C29.5722 8.12721 29.6299 8.08976 29.6947 8.0743C29.7594 8.05884 29.8273 8.06627 29.8873 8.0954C29.9474 8.12452 29.9961 8.17362 30.0255 8.2347" fill="white"/>
<path id="&#236;&#130;&#172;&#234;&#176;&#129;&#237;&#152;&#149; 4338" d="M21.0006 2.02148H24.6424V12.8504H21.0006V2.02148Z" fill="white"/>
<path id="&#237;&#140;&#168;&#236;&#138;&#164; 4596" d="M36.8037 6.4103V8.40637C36.8037 10.3478 37.5182 11.7514 38.927 12.5774C41.1747 13.8958 44.4114 13.0821 45.8301 12.0069V6.96744H42.5411V10.1367L42.4784 10.1619C42.2171 10.2658 41.9365 10.3084 41.6571 10.2866C41.3777 10.2648 41.1066 10.1792 40.8637 10.036C40.635 9.84699 40.4564 9.60217 40.344 9.32399C40.2317 9.04582 40.1893 8.7432 40.2207 8.44387V6.21047C40.188 5.92041 40.2591 5.62802 40.4209 5.38768C40.5828 5.14735 40.8242 4.97542 41.1005 4.90387C41.401 4.8297 41.7177 4.87524 41.9867 5.03127C42.2557 5.18731 42.4569 5.4422 42.5495 5.7444L45.7355 3.99315C45.3298 3.2707 44.7363 2.67783 44.0212 2.28058C43.3062 1.88333 42.4976 1.69728 41.6854 1.74315C41.4706 1.74315 41.2615 1.75387 41.0623 1.77208C39.9854 1.83803 38.9577 2.25704 38.1309 2.96726C37.6831 3.411 37.3332 3.94786 37.1047 4.54174C36.8762 5.13562 36.7745 5.77276 36.8063 6.4103" fill="white"/>
<path id="&#237;&#140;&#168;&#236;&#138;&#164; 4597" d="M9.03639 2.02148H0V5.19184H2.71818V12.8526H6.31298V5.19184H9.03377L9.03639 2.02148Z" fill="white"/>
<path id="&#237;&#140;&#168;&#236;&#138;&#164; 4598" d="M13.2072 12.9721L15.4842 5.72123C15.5054 5.65238 15.5499 5.59358 15.6098 5.55553C15.6696 5.51747 15.7408 5.50267 15.8104 5.51383C15.88 5.52498 15.9434 5.56134 15.989 5.6163C16.0347 5.67126 16.0596 5.74119 16.0592 5.81337L16.0592 12.9727L19.5124 12.9727L19.5124 2.14319L12.983 2.14319L9.4091 12.9721L13.2072 12.9721Z" fill="white"/>
</g>
</g>
</g>
</g>
</g>
</g>
<defs>
<clipPath id="clip0_80_3980">
<rect width="46" height="15" fill="white"/>
</clipPath>
</defs>
</svg>
