<svg width="24" height="24" viewBox="0 0 24 24" fill="none" xmlns="http://www.w3.org/2000/svg">
<rect width="24" height="24" rx="12" fill="#2B2B2B"/>
<g clip-path="url(#clip0_82_8016)">
<path d="M17.8665 8.9914C17.8759 9.12259 17.8759 9.25381 17.8759 9.385C17.8759 13.3865 14.8302 17.9973 9.26366 17.9973C7.5487 17.9973 5.95558 17.5005 4.61548 16.6384C4.85914 16.6665 5.0934 16.6759 5.34644 16.6759C6.76149 16.6759 8.06412 16.198 9.10434 15.3827C7.77361 15.3545 6.65842 14.483 6.27419 13.2835C6.46163 13.3116 6.64905 13.3303 6.84586 13.3303C7.11762 13.3303 7.38941 13.2928 7.64242 13.2273C6.25547 12.9461 5.21522 11.7278 5.21522 10.2565V10.2191C5.61817 10.444 6.08678 10.5845 6.58342 10.6033C5.76811 10.0597 5.23397 9.13196 5.23397 8.08237C5.23397 7.5201 5.38388 7.00467 5.6463 6.55485C7.13634 8.39163 9.3761 9.59114 11.8876 9.72236C11.8407 9.49744 11.8126 9.26318 11.8126 9.0289C11.8126 7.36078 13.1621 6.00195 14.8396 6.00195C15.7111 6.00195 16.4983 6.36743 17.0512 6.95783C17.7353 6.82664 18.3913 6.5736 18.9723 6.22687C18.7474 6.92973 18.2695 7.52013 17.6416 7.89495C18.2507 7.82939 18.8411 7.66066 19.3847 7.4264C18.9724 8.02615 18.4569 8.56029 17.8665 8.9914V8.9914Z" fill="#6B6B6B"/>
</g>
<defs>
<clipPath id="clip0_82_8016">
<rect width="14.7692" height="14.7692" fill="white" transform="translate(4.61548 4.61523)"/>
</clipPath>
</defs>
</svg>
