<svg width="16" height="14" viewBox="0 0 16 14" fill="none" xmlns="http://www.w3.org/2000/svg">
<g id="youtube" clip-path="url(#clip0_82_8007)">
<path id="Vector" d="M14.9186 3.43148C14.7525 2.79191 14.2632 2.2882 13.6418 2.11726C12.5157 1.80664 7.99982 1.80664 7.99982 1.80664C7.99982 1.80664 3.484 1.80664 2.3578 2.11726C1.73648 2.28823 1.24714 2.79191 1.08106 3.43148C0.779297 4.59075 0.779297 7.00944 0.779297 7.00944C0.779297 7.00944 0.779297 9.42814 1.08106 10.5874C1.24714 11.227 1.73648 11.7097 2.3578 11.8806C3.484 12.1913 7.99982 12.1913 7.99982 12.1913C7.99982 12.1913 12.5156 12.1913 13.6418 11.8806C14.2632 11.7097 14.7525 11.227 14.9186 10.5874C15.2203 9.42814 15.2203 7.00944 15.2203 7.00944C15.2203 7.00944 15.2203 4.59075 14.9186 3.43148V3.43148ZM6.52288 9.20544V4.81345L10.2972 7.0095L6.52288 9.20544V9.20544Z" fill="#6B6B6B"/>
</g>
<defs>
<clipPath id="clip0_82_8007">
<rect width="15.2308" height="13.8462" fill="white" transform="translate(0.384521 0.0761719)"/>
</clipPath>
</defs>
</svg>
