<svg width="50" height="50" viewBox="0 0 50 50" fill="none" xmlns="http://www.w3.org/2000/svg">
<g clip-path="url(#clip0_26_3201)">
<path d="M38.3289 39.8869H11.1079V19.4709H38.3289V39.8859V39.8869ZM24.7599 26.4429C24.2295 26.4429 23.7208 26.6537 23.3457 27.0287C22.9706 27.4038 22.7599 27.9125 22.7599 28.4429V31.5709C22.7599 32.1014 22.9706 32.6101 23.3457 32.9852C23.7208 33.3602 24.2295 33.5709 24.7599 33.5709H24.8309C25.3613 33.5709 25.8701 33.3602 26.2451 32.9852C26.6202 32.6101 26.8309 32.1014 26.8309 31.5709V28.4439C26.8309 27.9135 26.6202 27.4048 26.2451 27.0297C25.8701 26.6547 25.3613 26.4439 24.8309 26.4439L24.7599 26.4429Z" fill="white"/>
<path d="M24.7948 9.14111C26.9542 9.14111 29.0252 9.99893 30.5521 11.5258C32.079 13.0528 32.9368 15.1237 32.9368 17.2831V22.3721C32.9368 26.8721 16.8578 23.1371 16.6528 22.3721V17.2831C16.6528 15.1237 17.5106 13.0528 19.0376 11.5258C20.5645 9.99893 22.6354 9.14111 24.7948 9.14111V9.14111Z" stroke="white" stroke-width="4"/>
</g>
<defs>
<clipPath id="clip0_26_3201">
<rect width="50" height="50" fill="white"/>
</clipPath>
</defs>
</svg>
