<svg width="92" height="186" viewBox="0 0 92 186" fill="none" xmlns="http://www.w3.org/2000/svg">
<rect x="20" y="114" width="52" height="52" rx="26" fill="#2B2B2B"/>
<g clip-path="url(#clip0_82_8061)">
<path d="M54.0817 142.171L55.0462 135.885H49.0152V131.806C49.0152 130.087 49.8577 128.411 52.5588 128.411H55.3006V123.059C55.3006 123.059 52.8125 122.635 50.4336 122.635C45.4669 122.635 42.2204 125.645 42.2204 131.095V135.885H36.6995V142.171H42.2204V157.365H49.0152V142.171H54.0817Z" fill="#6B6B6B"/>
</g>
<rect x="20" y="20" width="24" height="24" rx="12" fill="#2B2B2B"/>
<g clip-path="url(#clip1_82_8061)">
<path d="M35.7298 33.0009L36.175 30.1H33.3915V28.2175C33.3915 27.4238 33.7803 26.6502 35.027 26.6502H36.2924V24.1804C36.2924 24.1804 35.1441 23.9844 34.0461 23.9844C31.7538 23.9844 30.2554 25.3738 30.2554 27.889V30.1H27.7073V33.0009H30.2554V40.0138H33.3915V33.0009H35.7298Z" fill="#6B6B6B"/>
</g>
<rect x="20" y="64" width="30" height="30" rx="15" fill="#2B2B2B"/>
<g clip-path="url(#clip2_82_8061)">
<path d="M39.6625 80.2531L40.219 76.6269H36.7395V74.2738C36.7395 73.2817 37.2256 72.3147 38.7839 72.3147H40.3657V69.2274C40.3657 69.2274 38.9303 68.9824 37.5578 68.9824C34.6924 68.9824 32.8194 70.7192 32.8194 73.8633V76.6269H29.6343V80.2531H32.8194V89.0192H36.7395V80.2531H39.6625Z" fill="#6B6B6B"/>
</g>
<rect x="0.5" y="0.5" width="91" height="185" rx="4.5" stroke="#9747FF" stroke-dasharray="10 5"/>
<defs>
<clipPath id="clip0_82_8061">
<rect width="21.7065" height="34.7305" fill="white" transform="translate(35.1467 122.635)"/>
</clipPath>
<clipPath id="clip1_82_8061">
<rect width="10.0184" height="16.0294" fill="white" transform="translate(26.9907 23.9844)"/>
</clipPath>
<clipPath id="clip2_82_8061">
<rect width="12.523" height="20.0368" fill="white" transform="translate(28.7385 68.9824)"/>
</clipPath>
</defs>
</svg>
