<svg width="92" height="186" viewBox="0 0 92 186" fill="none" xmlns="http://www.w3.org/2000/svg">
<rect x="20" y="114" width="52" height="52" rx="26" fill="#2B2B2B"/>
<g clip-path="url(#clip0_82_8059)">
<path d="M46.007 131.707C41.4207 131.707 37.7213 135.406 37.7213 139.992C37.7213 144.579 41.4207 148.278 46.007 148.278C50.5933 148.278 54.2927 144.579 54.2927 139.992C54.2927 135.406 50.5933 131.707 46.007 131.707ZM46.007 145.379C43.0432 145.379 40.6202 142.963 40.6202 139.992C40.6202 137.021 43.036 134.606 46.007 134.606C48.978 134.606 51.3938 137.021 51.3938 139.992C51.3938 142.963 48.9708 145.379 46.007 145.379ZM56.5642 131.368C56.5642 132.442 55.6989 133.3 54.6316 133.3C53.5571 133.3 52.699 132.435 52.699 131.368C52.699 130.301 53.5643 129.435 54.6316 129.435C55.6989 129.435 56.5642 130.301 56.5642 131.368ZM62.0519 133.329C61.9293 130.741 61.338 128.447 59.4415 126.558C57.5521 124.669 55.259 124.077 52.6702 123.948C50.002 123.796 42.0048 123.796 39.3366 123.948C36.755 124.07 34.4619 124.661 32.5653 126.551C30.6688 128.44 30.0847 130.733 29.9549 133.322C29.8034 135.99 29.8034 143.987 29.9549 146.656C30.0775 149.244 30.6688 151.538 32.5653 153.427C34.4619 155.316 36.7478 155.908 39.3366 156.037C42.0048 156.189 50.002 156.189 52.6702 156.037C55.259 155.915 57.5521 155.323 59.4415 153.427C61.3308 151.538 61.9221 149.244 62.0519 146.656C62.2034 143.987 62.2034 135.997 62.0519 133.329ZM58.605 149.518C58.0425 150.932 56.9536 152.021 55.533 152.59C53.4057 153.434 48.3579 153.239 46.007 153.239C43.6562 153.239 38.6011 153.427 36.481 152.59C35.0676 152.028 33.9787 150.939 33.409 149.518C32.5653 147.391 32.76 142.343 32.76 139.992C32.76 137.642 32.5725 132.587 33.409 130.466C33.9715 129.053 35.0604 127.964 36.481 127.395C38.6083 126.551 43.6562 126.746 46.007 126.746C48.3579 126.746 53.4129 126.558 55.533 127.395C56.9464 127.957 58.0353 129.046 58.605 130.466C59.4487 132.594 59.254 137.642 59.254 139.992C59.254 142.343 59.4487 147.398 58.605 149.518Z" fill="#6B6B6B"/>
</g>
<rect x="20" y="20" width="24" height="24" rx="12" fill="#2B2B2B"/>
<g clip-path="url(#clip1_82_8059)">
<path d="M32.0031 28.1727C29.8863 28.1727 28.1789 29.8801 28.1789 31.9968C28.1789 34.1136 29.8863 35.821 32.0031 35.821C34.1198 35.821 35.8272 34.1136 35.8272 31.9968C35.8272 29.8801 34.1198 28.1727 32.0031 28.1727ZM32.0031 34.483C30.6352 34.483 29.5169 33.3681 29.5169 31.9968C29.5169 30.6256 30.6318 29.5106 32.0031 29.5106C33.3743 29.5106 34.4893 30.6256 34.4893 31.9968C34.4893 33.3681 33.371 34.483 32.0031 34.483ZM36.8756 28.0162C36.8756 28.5122 36.4762 28.9082 35.9837 28.9082C35.4878 28.9082 35.0917 28.5088 35.0917 28.0162C35.0917 27.5237 35.4911 27.1243 35.9837 27.1243C36.4762 27.1243 36.8756 27.5237 36.8756 28.0162ZM39.4084 28.9215C39.3518 27.7267 39.0789 26.6683 38.2036 25.7963C37.3316 24.9243 36.2732 24.6514 35.0784 24.5915C33.8469 24.5216 30.1559 24.5216 28.9245 24.5915C27.7329 24.6481 26.6746 24.921 25.7992 25.793C24.9239 26.665 24.6543 27.7234 24.5944 28.9182C24.5245 30.1496 24.5245 33.8407 24.5944 35.0721C24.651 36.267 24.9239 37.3253 25.7992 38.1973C26.6746 39.0693 27.7296 39.3423 28.9245 39.4022C30.1559 39.4721 33.8469 39.4721 35.0784 39.4022C36.2732 39.3456 37.3316 39.0727 38.2036 38.1973C39.0756 37.3253 39.3485 36.267 39.4084 35.0721C39.4783 33.8407 39.4783 30.153 39.4084 28.9215ZM37.8175 36.3934C37.5579 37.0458 37.0554 37.5483 36.3997 37.8113C35.4179 38.2007 33.0881 38.1108 32.0031 38.1108C30.9181 38.1108 28.585 38.1973 27.6065 37.8113C26.9541 37.5517 26.4516 37.0491 26.1886 36.3934C25.7992 35.4116 25.8891 33.0818 25.8891 31.9968C25.8891 30.9118 25.8026 28.5787 26.1886 27.6002C26.4482 26.9479 26.9508 26.4453 27.6065 26.1824C28.5883 25.793 30.9181 25.8828 32.0031 25.8828C33.0881 25.8828 35.4212 25.7963 36.3997 26.1824C37.052 26.442 37.5546 26.9446 37.8175 27.6002C38.2069 28.582 38.1171 30.9118 38.1171 31.9968C38.1171 33.0818 38.2069 35.4149 37.8175 36.3934Z" fill="#6B6B6B"/>
</g>
<rect x="20" y="64" width="30" height="30" rx="15" fill="#2B2B2B"/>
<g clip-path="url(#clip2_82_8059)">
<path d="M35.0041 74.2158C32.3581 74.2158 30.2239 76.3501 30.2239 78.996C30.2239 81.642 32.3581 83.7762 35.0041 83.7762C37.6501 83.7762 39.7843 81.642 39.7843 78.996C39.7843 76.3501 37.6501 74.2158 35.0041 74.2158ZM35.0041 82.1038C33.2942 82.1038 31.8963 80.7101 31.8963 78.996C31.8963 77.282 33.2901 75.8883 35.0041 75.8883C36.7181 75.8883 38.1118 77.282 38.1118 78.996C38.1118 80.7101 36.714 82.1038 35.0041 82.1038ZM41.0948 74.0203C41.0948 74.6402 40.5955 75.1353 39.9798 75.1353C39.3599 75.1353 38.8649 74.636 38.8649 74.0203C38.8649 73.4046 39.3641 72.9053 39.9798 72.9053C40.5955 72.9053 41.0948 73.4046 41.0948 74.0203ZM44.2608 75.1519C44.1901 73.6584 43.8489 72.3354 42.7547 71.2454C41.6647 70.1554 40.3418 69.8142 38.8482 69.7394C37.3089 69.652 32.6951 69.652 31.1558 69.7394C29.6664 69.8101 28.3434 70.1512 27.2493 71.2412C26.1551 72.3312 25.8181 73.6542 25.7433 75.1477C25.6559 76.6871 25.6559 81.3008 25.7433 82.8402C25.814 84.3337 26.1551 85.6567 27.2493 86.7467C28.3434 87.8367 29.6623 88.1778 31.1558 88.2527C32.6951 88.3401 37.3089 88.3401 38.8482 88.2527C40.3418 88.182 41.6647 87.8408 42.7547 86.7467C43.8447 85.6567 44.1859 84.3337 44.2608 82.8402C44.3481 81.3008 44.3481 76.6912 44.2608 75.1519ZM42.2722 84.4918C41.9476 85.3072 41.3194 85.9354 40.4999 86.2641C39.2726 86.7508 36.3604 86.6385 35.0041 86.6385C33.6478 86.6385 30.7315 86.7467 29.5083 86.2641C28.6929 85.9396 28.0647 85.3114 27.736 84.4918C27.2493 83.2645 27.3616 80.3523 27.3616 78.996C27.3616 77.6398 27.2534 74.7234 27.736 73.5003C28.0605 72.6848 28.6888 72.0566 29.5083 71.728C30.7356 71.2412 33.6478 71.3536 35.0041 71.3536C36.3604 71.3536 39.2767 71.2454 40.4999 71.728C41.3153 72.0525 41.9435 72.6807 42.2722 73.5003C42.7589 74.7276 42.6466 77.6398 42.6466 78.996C42.6466 80.3523 42.7589 83.2687 42.2722 84.4918Z" fill="#6B6B6B"/>
</g>
<rect x="0.5" y="0.5" width="91" height="185" rx="4.5" stroke="#9747FF" stroke-dasharray="10 5"/>
<defs>
<clipPath id="clip0_82_8059">
<rect width="32.3062" height="36.9213" fill="white" transform="translate(29.8469 121.539)"/>
</clipPath>
<clipPath id="clip1_82_8059">
<rect width="14.9105" height="17.0406" fill="white" transform="translate(24.5447 23.4805)"/>
</clipPath>
<clipPath id="clip2_82_8059">
<rect width="18.6382" height="21.3008" fill="white" transform="translate(25.6809 68.3496)"/>
</clipPath>
</defs>
</svg>
