<svg width="92" height="186" viewBox="0 0 92 186" fill="none" xmlns="http://www.w3.org/2000/svg">
<rect x="20" y="114" width="52" height="52" rx="26" fill="#2B2B2B"/>
<g clip-path="url(#clip0_82_8060)">
<path d="M58.7106 133.483C58.7309 133.767 58.7309 134.052 58.7309 134.336C58.7309 143.006 52.132 152.996 40.0711 152.996C36.3553 152.996 32.9036 151.919 30 150.052C30.5279 150.112 31.0355 150.133 31.5838 150.133C34.6497 150.133 37.4721 149.097 39.7259 147.331C36.8426 147.27 34.4264 145.381 33.5939 142.782C34 142.843 34.4061 142.884 34.8325 142.884C35.4213 142.884 36.0102 142.803 36.5584 142.661C33.5533 142.051 31.2994 139.412 31.2994 136.224V136.143C32.1725 136.63 33.1878 136.935 34.2639 136.975C32.4974 135.798 31.3401 133.788 31.3401 131.513C31.3401 130.295 31.6649 129.178 32.2334 128.204C35.4619 132.183 40.3147 134.782 45.7563 135.067C45.6548 134.579 45.5938 134.072 45.5938 133.564C45.5938 129.95 48.5177 127.006 52.1522 127.006C54.0405 127.006 55.7461 127.798 56.9441 129.077C58.4263 128.793 59.8476 128.244 61.1065 127.493C60.6191 129.016 59.5836 130.295 58.2233 131.107C59.5431 130.965 60.8223 130.6 61.9999 130.092C61.1066 131.392 59.9898 132.549 58.7106 133.483Z" fill="#6B6B6B"/>
</g>
<rect x="20" y="20" width="24" height="24" rx="12" fill="#2B2B2B"/>
<g clip-path="url(#clip1_82_8060)">
<path d="M37.8665 28.9914C37.8759 29.1226 37.8759 29.2538 37.8759 29.385C37.8759 33.3865 34.8302 37.9973 29.2637 37.9973C27.5487 37.9973 25.9556 37.5005 24.6155 36.6384C24.8591 36.6665 25.0934 36.6759 25.3464 36.6759C26.7615 36.6759 28.0641 36.198 29.1043 35.3827C27.7736 35.3545 26.6584 34.483 26.2742 33.2835C26.4616 33.3116 26.649 33.3303 26.8459 33.3303C27.1176 33.3303 27.3894 33.2928 27.6424 33.2273C26.2555 32.9461 25.2152 31.7278 25.2152 30.2565V30.2191C25.6182 30.444 26.0868 30.5845 26.5834 30.6033C25.7681 30.0597 25.234 29.132 25.234 28.0824C25.234 27.5201 25.3839 27.0047 25.6463 26.5548C27.1363 28.3916 29.3761 29.5911 31.8876 29.7224C31.8407 29.4974 31.8126 29.2632 31.8126 29.0289C31.8126 27.3608 33.1621 26.002 34.8396 26.002C35.7111 26.002 36.4983 26.3674 37.0512 26.9578C37.7353 26.8266 38.3913 26.5736 38.9723 26.2269C38.7474 26.9297 38.2695 27.5201 37.6416 27.895C38.2507 27.8294 38.8411 27.6607 39.3847 27.4264C38.9724 28.0261 38.4569 28.5603 37.8665 28.9914Z" fill="#6B6B6B"/>
</g>
<rect x="20" y="64" width="30" height="30" rx="15" fill="#2B2B2B"/>
<g clip-path="url(#clip2_82_8060)">
<path d="M42.3331 75.2407C42.3448 75.4047 42.3448 75.5687 42.3448 75.7327C42.3448 80.7346 38.5378 86.498 31.5795 86.498C29.4358 86.498 27.4444 85.8772 25.7693 84.7995C26.0739 84.8346 26.3667 84.8463 26.683 84.8463C28.4518 84.8463 30.0801 84.2489 31.3804 83.2298C29.717 83.1946 28.323 82.1052 27.8427 80.6058C28.077 80.6409 28.3112 80.6644 28.5573 80.6644C28.897 80.6644 29.2367 80.6175 29.553 80.5355C27.8193 80.1841 26.519 78.6613 26.519 76.8221V76.7753C27.0227 77.0564 27.6084 77.2321 28.2292 77.2555C27.2101 76.5761 26.5424 75.4164 26.5424 74.1044C26.5424 73.4016 26.7298 72.7573 27.0578 72.195C28.9204 74.491 31.7201 75.9904 34.8594 76.1544C34.8009 75.8733 34.7657 75.5804 34.7657 75.2876C34.7657 73.2024 36.4526 71.5039 38.5494 71.5039C39.6388 71.5039 40.6228 71.9608 41.3139 72.6988C42.169 72.5348 42.989 72.2185 43.7153 71.785C43.4342 72.6636 42.8368 73.4016 42.0519 73.8702C42.8134 73.7882 43.5514 73.5773 44.2308 73.2845C43.7154 74.0341 43.0711 74.7018 42.3331 75.2407Z" fill="#6B6B6B"/>
</g>
<rect x="0.5" y="0.5" width="91" height="185" rx="4.5" stroke="#9747FF" stroke-dasharray="10 5"/>
<defs>
<clipPath id="clip0_82_8060">
<rect width="32" height="32" fill="white" transform="translate(30 124)"/>
</clipPath>
<clipPath id="clip1_82_8060">
<rect width="14.7692" height="14.7692" fill="white" transform="translate(24.6155 24.6152)"/>
</clipPath>
<clipPath id="clip2_82_8060">
<rect width="18.4615" height="18.4615" fill="white" transform="translate(25.7693 69.7695)"/>
</clipPath>
</defs>
</svg>
