<svg width="92" height="186" viewBox="0 0 92 186" fill="none" xmlns="http://www.w3.org/2000/svg">
<rect x="20" y="114" width="52" height="52" rx="26" fill="#2B2B2B"/>
<path d="M60.9906 132.27C60.6307 130.885 59.5705 129.793 58.2243 129.423C55.7843 128.75 45.9999 128.75 45.9999 128.75C45.9999 128.75 36.2157 128.75 33.7756 129.423C32.4294 129.793 31.3691 130.885 31.0093 132.27C30.3555 134.782 30.3555 140.023 30.3555 140.023C30.3555 140.023 30.3555 145.263 31.0093 147.775C31.3691 149.161 32.4294 150.207 33.7756 150.577C36.2157 151.25 45.9999 151.25 45.9999 151.25C45.9999 151.25 55.7842 151.25 58.2243 150.577C59.5705 150.207 60.6307 149.161 60.9906 147.775C61.6444 145.263 61.6444 140.023 61.6444 140.023C61.6444 140.023 61.6444 134.782 60.9906 132.27ZM42.7999 144.781V135.265L50.9777 140.023L42.7999 144.781Z" fill="#6B6B6B"/>
<rect x="20" y="20" width="24" height="24" rx="12" fill="#2B2B2B"/>
<g clip-path="url(#clip0_82_8058)">
<path d="M38.9186 28.4315C38.7525 27.7919 38.2632 27.2882 37.6418 27.1173C36.5157 26.8066 31.9998 26.8066 31.9998 26.8066C31.9998 26.8066 27.484 26.8066 26.3578 27.1173C25.7365 27.2882 25.2471 27.7919 25.0811 28.4315C24.7793 29.5907 24.7793 32.0094 24.7793 32.0094C24.7793 32.0094 24.7793 34.4281 25.0811 35.5874C25.2471 36.227 25.7365 36.7097 26.3578 36.8806C27.484 37.1913 31.9998 37.1913 31.9998 37.1913C31.9998 37.1913 36.5156 37.1913 37.6418 36.8806C38.2632 36.7097 38.7525 36.227 38.9186 35.5874C39.2203 34.4281 39.2203 32.0094 39.2203 32.0094C39.2203 32.0094 39.2203 29.5907 38.9186 28.4315ZM30.5229 34.2054V29.8134L34.2972 32.0095L30.5229 34.2054Z" fill="#6B6B6B"/>
</g>
<rect x="20" y="64" width="30" height="30" rx="15" fill="#2B2B2B"/>
<g clip-path="url(#clip1_82_8058)">
<path d="M43.6485 74.5408C43.4409 73.7413 42.8292 73.1117 42.0525 72.898C40.6448 72.5098 35 72.5098 35 72.5098C35 72.5098 29.3552 72.5098 27.9475 72.898C27.1708 73.1117 26.5592 73.7413 26.3516 74.5408C25.9744 75.9899 25.9744 79.0133 25.9744 79.0133C25.9744 79.0133 25.9744 82.0366 26.3516 83.4857C26.5592 84.2852 27.1708 84.8886 27.9475 85.1023C29.3552 85.4905 35 85.4905 35 85.4905C35 85.4905 40.6448 85.4905 42.0525 85.1023C42.8292 84.8886 43.4409 84.2852 43.6485 83.4857C44.0257 82.0366 44.0257 79.0133 44.0257 79.0133C44.0257 79.0133 44.0257 75.9899 43.6485 74.5408ZM33.1538 81.7583V76.2683L37.8718 79.0133L33.1538 81.7583Z" fill="#6B6B6B"/>
</g>
<rect x="0.5" y="0.5" width="91" height="185" rx="4.5" stroke="#9747FF" stroke-dasharray="10 5"/>
<defs>
<clipPath id="clip0_82_8058">
<rect width="15.2308" height="13.8462" fill="white" transform="translate(24.3845 25.0762)"/>
</clipPath>
<clipPath id="clip1_82_8058">
<rect width="19.0385" height="17.3077" fill="white" transform="translate(25.4807 70.3457)"/>
</clipPath>
</defs>
</svg>
