<svg width="279" height="110" viewBox="0 0 279 110" fill="none" xmlns="http://www.w3.org/2000/svg">
<g clip-path="url(#clip0_22_965)">
<path d="M78.0801 106.961L92.0166 63.8717C92.1032 63.6033 92.2832 63.3746 92.5243 63.2268C92.7654 63.079 93.0516 63.0218 93.3314 63.0655C93.6111 63.1092 93.8659 63.251 94.0499 63.4653C94.2338 63.6795 94.3348 63.9522 94.3346 64.234L94.3346 106.961L116.459 106.961L116.459 42.0149L75.839 42.0149L53.7824 106.96L78.0801 106.961Z" fill="white"/>
<path d="M127.298 42.0162H150.569V106.961H127.298V42.0162ZM0 61.3986H16.7308V106.964H39.2396V61.3986H55.9689V42.0162H0V61.3986ZM196.445 42.019V69.1542C196.446 69.4212 196.356 69.6807 196.189 69.8901C196.023 70.0996 195.79 70.2468 195.529 70.3077C195.267 70.3686 194.993 70.3396 194.75 70.2255C194.508 70.1114 194.311 69.9189 194.193 69.6793L180.433 42.019H158.443V106.965H179.827V79.9785C179.827 79.7119 179.917 79.4532 180.084 79.2443C180.25 79.0355 180.482 78.8887 180.743 78.8279C181.004 78.7671 181.278 78.7957 181.52 78.9093C181.762 79.0228 181.959 79.2146 182.078 79.4533L195.774 106.962H217.767V42.0162L196.445 42.019ZM244.992 81.0401V66.8526C244.992 63.2628 246.427 60.6244 249.887 59.7198C253.596 58.7573 257.019 61.1056 258.182 64.9473L278.649 54.0394C270.583 39.4017 255.493 39.6013 249.453 40.1279C242.798 40.5324 236.447 43.0474 231.332 47.3045C225.739 52.0662 223.092 59.8345 223.092 68.0288V80.8193C223.092 93.0096 227.927 101.14 236.266 105.893C250.652 114.086 270.84 108.499 279.004 102.315V71.143H257.872V90.6004C254.876 91.7583 244.998 93.086 244.998 81.0373" fill="white"/>
<path d="M181.375 1.13086H197.936V3.65894H181.375V1.13086Z" fill="white"/>
<path d="M194.636 5.99051L195.251 3.55727V3.5332H192.311L191.691 5.99051H187.341V3.5332H184.461V5.99051H181.172V8.44641H198.149V5.99051H194.636Z" fill="white"/>
<path d="M184.04 18.6224H197.936V12.8613H181.375V15.3087H195.275V16.175H181.378V21.9602H198.159V19.5184H184.04V18.6224Z" fill="white"/>
<path d="M180.344 9.44531H198.967V11.9748H180.344V9.44531Z" fill="white"/>
<path d="M226.78 1.13086H243.398V3.80049H226.78V1.13086Z" fill="white"/>
<path d="M236.45 11.0466V9.60278H243.617V6.98268H240.146L240.803 3.4043H237.889L237.209 6.98268H232.751V3.4043H229.871V6.98268H226.582V9.60278H233.455V11.0466H225.537V13.6907H244.492V11.0466H236.45Z" fill="white"/>
<path d="M226.78 21.9656H243.398V14.7734H226.78V21.9656ZM229.561 17.2775H240.618V19.4602H229.561V17.2775Z" fill="white"/>
<path d="M108.927 15.3027H105.994V21.9627H122.774V19.3765H108.92L108.927 15.3027Z" fill="white"/>
<path d="M119.611 10.5397H122.545V1.13086H105.995V3.85711H119.611V5.46088H105.995V8.13901H119.611V10.5397Z" fill="white"/>
<path d="M114.779 11.6862V9.0293H111.845V11.6862H104.968V14.2723H123.475V11.6862H114.779Z" fill="white"/>
<path d="M136.261 13.4264V10.6931L130.648 11.0894V8.72839H135.503V6.0262H130.648V3.85907H135.933V1.13281H127.714V14.0549L136.247 13.4293L136.261 13.4264Z" fill="white"/>
<path d="M138.511 16.0871H141.421V0.796875H138.51V6.03423H136.401V8.72934H138.51L138.511 16.0871Z" fill="white"/>
<path d="M142.612 0.699219H145.546V16.6604H142.612V0.699219Z" fill="white"/>
<path d="M131.378 19.3783V15.0879H128.444V21.9658H145.631V19.3783H131.378Z" fill="white"/>
<path d="M159.06 6.3678L165.602 15.7398L167.937 13.8799L161.822 5.38686H167.51V2.72289H160.515V-0.00195312H157.413V2.72289H150.587V5.39111H156.276L150.205 13.87L152.51 15.7328L159.06 6.3678Z" fill="white"/>
<path d="M149.694 19.2949H168.434V21.9631H149.694V19.2949Z" fill="white"/>
<path d="M216.939 8.80418H218.49V15.1739H221.369V0.693359H218.49V6.13596H216.936V0.789614H214.1V14.2652H216.936L216.939 8.80418Z" fill="white"/>
<path d="M212.648 13.4486V10.8865L206.64 11.2715V8.51694H212.415V1.13086H203.759V3.67876H209.536V5.98744H203.759V14.1818L212.648 13.4486Z" fill="white"/>
<path d="M213.02 14.5371H213.008L203.878 20.2402L205.515 22.5347L213.008 17.797L220.473 22.5404L222.127 20.2345L213.02 14.5371Z" fill="white"/>
<path d="M88.2488 21.9776L84.951 12.4852H84.7078V21.9776H81.4114V1.16406H84.7306L84.7078 10.3917H84.951L88.1151 1.16406H91.7002L87.9388 11.2693L92.0984 21.9733L88.2488 21.9776Z" fill="white"/>
<path d="M93.4124 10.0176H100.573V12.6164H93.4124V10.0176Z" fill="white"/>
<path d="M57.7807 18.2559H61.0998V21.9786H57.7807V18.2559Z" fill="white"/>
<path d="M39.935 7.00017V1.16406H43.055V21.9719H39.824L36.5532 9.35132H36.3542L36.5092 14.6594V21.9719H33.4119V1.16406H36.9955L39.9165 12.6381H40.1369L39.935 7.00017Z" fill="white"/>
<path d="M67.7452 1.09766V21.9777H64.4744V6.00944H62.2844V4.02774C63.1177 4.07135 63.9352 3.7898 64.5633 3.24292C65.1913 2.69604 65.5803 1.92694 65.6476 1.09907L67.7452 1.09766Z" fill="white"/>
<path d="M55.4527 6.13157V17.0125C55.4527 20.2682 53.6822 22.1876 50.5408 22.1876C47.3767 22.1876 45.673 20.271 45.673 17.0125V6.13157C45.673 2.85043 47.3994 0.955078 50.5408 0.955078C53.705 0.955078 55.4527 2.84902 55.4527 6.13157ZM52.0966 5.59651C52.0966 4.51648 51.4993 3.83421 50.592 3.83421C50.3707 3.83669 50.1524 3.88591 49.9515 3.9786C49.7507 4.0713 49.572 4.20536 49.4271 4.37194C49.2822 4.53851 49.1744 4.7338 49.111 4.9449C49.0475 5.156 49.0298 5.37809 49.059 5.59651V17.5334C49.059 18.6135 49.679 19.2957 50.5636 19.2957C50.7844 19.2925 51.0021 19.2427 51.2022 19.1496C51.4024 19.0566 51.5805 18.9224 51.7247 18.7559C51.869 18.5894 51.9763 18.3944 52.0394 18.1837C52.1025 17.973 52.12 17.7514 52.0909 17.5334L52.0966 5.59651Z" fill="white"/>
</g>
<defs>
<clipPath id="clip0_22_965">
<rect width="279" height="110" fill="white"/>
</clipPath>
</defs>
</svg>
